<?xml version="1.0" encoding="iso-8859-1"?>
<!-- Generator: Adobe Illustrator 16.0.0, SVG Export Plug-In . SVG Version: 6.00 Build 0)  -->
<!DOCTYPE svg PUBLIC "-//W3C//DTD SVG 1.1//EN" "http://www.w3.org/Graphics/SVG/1.1/DTD/svg11.dtd">
<svg version="1.1" id="Capa_1" xmlns="http://www.w3.org/2000/svg" xmlns:xlink="http://www.w3.org/1999/xlink" x="0px" y="0px"
	 width="27.938px" height="27.937px" viewBox="0 0 27.938 27.937" style="enable-background:new 0 0 27.938 27.937;"
	 xml:space="preserve">
<g>
	<g>
		<path d="M9.507,11.893L6.754,20.9h2.112l0.641-2.312h2.579l0.695,2.312h2.191l-2.793-9.007H9.507z M9.801,17.064l0.534-1.911
			c0.147-0.521,0.281-1.202,0.414-1.737h0.027c0.134,0.535,0.294,1.203,0.455,1.737l0.562,1.911H9.801z"/>
		<path d="M21.094,17.037c0-1.537-0.695-2.82-2.873-2.82c-1.189,0-2.086,0.321-2.541,0.576l0.375,1.309
			c0.429-0.268,1.137-0.493,1.805-0.493c1.002,0,1.189,0.493,1.189,0.842v0.095c-2.312-0.015-3.836,0.801-3.836,2.498
			c0,1.043,0.788,2.004,2.111,2.004c0.775,0,1.443-0.279,1.871-0.802h0.04l0.12,0.655h1.83c-0.066-0.361-0.094-0.963-0.094-1.592
			v-2.271H21.094z M19.115,18.521c0,0.119-0.014,0.24-0.04,0.347c-0.134,0.415-0.548,0.749-1.056,0.749
			c-0.454,0-0.803-0.254-0.803-0.773c0-0.789,0.83-1.043,1.898-1.031V18.521z"/>
		<path d="M25.643,7.633h-1.166l-2.823-4.891l-8.47,4.891h-3.104c-0.161,0-0.297-0.136-0.297-0.297V6.039
			c0-1.267-1.03-2.297-2.297-2.297H2.297C1.03,3.742,0,4.771,0,6.039v16.86c0,1.267,1.03,2.297,2.297,2.297h23.343
			c1.268,0,2.297-1.03,2.297-2.297V9.93C27.939,8.663,26.908,7.633,25.643,7.633z M25.939,22.899c0,0.161-0.137,0.297-0.297,0.297
			H2.298c-0.161,0-0.297-0.136-0.297-0.297V6.039c0-0.161,0.136-0.297,0.297-0.297h5.188c0.161,0,0.297,0.136,0.297,0.297v1.297
			c0,1.267,1.03,2.297,2.297,2.297h15.562c0.162,0,0.298,0.136,0.298,0.297L25.939,22.899L25.939,22.899z"/>
	</g>
</g>
<g>
</g>
<g>
</g>
<g>
</g>
<g>
</g>
<g>
</g>
<g>
</g>
<g>
</g>
<g>
</g>
<g>
</g>
<g>
</g>
<g>
</g>
<g>
</g>
<g>
</g>
<g>
</g>
<g>
</g>
</svg>
