<?xml version="1.0" encoding="iso-8859-1"?>
<!-- Generator: Adobe Illustrator 18.0.0, SVG Export Plug-In . SVG Version: 6.00 Build 0)  -->
<!DOCTYPE svg PUBLIC "-//W3C//DTD SVG 1.1//EN" "http://www.w3.org/Graphics/SVG/1.1/DTD/svg11.dtd">
<svg version="1.1" id="Capa_1" xmlns="http://www.w3.org/2000/svg" xmlns:xlink="http://www.w3.org/1999/xlink" x="0px" y="0px"
	 viewBox="0 0 487.549 487.549" style="enable-background:new 0 0 487.549 487.549;" xml:space="preserve">
<g>
	<polygon points="250.544,251.774 250.544,251.81 214.173,284.952 230.594,302.975 250.544,284.795 250.544,372.774 
		274.925,372.774 274.925,262.576 274.925,251.774 250.582,251.774 	"/>
	<path d="M169.51,150.017L66.949,14.274H0l125.052,165.156C138.484,167.321,153.455,157.452,169.51,150.017z"/>
	<path d="M244.549,133.589c0.768,0,1.533,0.012,2.299,0.021L156.491,14.274H92.016l96.812,128.135
		C206.58,136.606,225.332,133.589,244.549,133.589z"/>
	<path d="M244.549,151.274c-43.006,0-83.436,16.747-113.845,47.156c-30.408,30.407-47.155,70.838-47.155,113.844
		s16.747,83.436,47.156,113.845c30.407,30.408,70.838,47.155,113.844,47.155c43.006,0,83.436-16.747,113.845-47.156
		c30.408-30.407,47.155-70.838,47.155-113.844s-16.747-83.437-47.156-113.845C327.985,168.021,287.555,151.274,244.549,151.274z
		 M244.549,433.274c-66.827,0-121-54.173-121-121s54.173-121,121-121c66.827,0,121,54.173,121,121S311.376,433.274,244.549,433.274z
		"/>
	<path d="M363.121,178.606L487.549,14.274h-70.4L315.855,148.339C332.955,155.781,348.886,165.947,363.121,178.606z"/>
	<path d="M296.228,141.141l95.854-126.866h-75.303l-65.865,86.988l26.791,35.384C283.977,137.817,290.158,139.316,296.228,141.141z"
		/>
</g>
<g>
</g>
<g>
</g>
<g>
</g>
<g>
</g>
<g>
</g>
<g>
</g>
<g>
</g>
<g>
</g>
<g>
</g>
<g>
</g>
<g>
</g>
<g>
</g>
<g>
</g>
<g>
</g>
<g>
</g>
</svg>
