<?xml version="1.0" encoding="utf-8"?>
<!-- Generator: Adobe Illustrator 16.0.0, SVG Export Plug-In . SVG Version: 6.00 Build 0)  -->
<!DOCTYPE svg PUBLIC "-//W3C//DTD SVG 1.1//EN" "http://www.w3.org/Graphics/SVG/1.1/DTD/svg11.dtd">
<svg version="1.1" id="Layer_1" xmlns="http://www.w3.org/2000/svg" xmlns:xlink="http://www.w3.org/1999/xlink" x="0px" y="0px"
	 width="512px" height="512px" viewBox="0 0 512 512" enable-background="new 0 0 512 512" xml:space="preserve">
<g>
	<path d="M494.443,333.348l-19.328-11.163c1.291-7.108,2.063-14.392,2.063-21.863c0-7.467-0.771-14.746-2.063-21.841l19.328-11.171
		c8.57-4.942,11.504-15.899,6.576-24.465l-22.713-39.296c-4.928-8.566-15.885-11.499-24.451-6.552l-19.328,11.154
		c-11.051-9.44-23.873-16.85-37.885-21.837V163.96c0-9.894-8.023-17.913-17.912-17.913h-45.354c-9.895,0-17.914,8.019-17.914,17.913
		v16.235c16.365,8.068,28.125,23.725,30.799,42.44c3.219-0.417,6.475-0.731,9.789-0.731c43.266,0,78.445,35.179,78.445,78.417
		c0,43.256-35.18,78.439-78.445,78.439c-3.059,0-6.023-0.323-8.986-0.668v35.583v40.919h31.666c9.889,0,17.912-8.023,17.912-17.912
		v-22.37c14.012-4.979,26.803-12.378,37.885-21.819l19.328,11.172c4.092,2.373,8.988,3.018,13.594,1.785
		c4.574-1.224,8.504-4.225,10.857-8.342l22.713-39.292C505.947,349.246,503.014,338.294,494.443,333.348z"/>
	<path d="M418,300.321c0-34.147-27.801-61.926-61.949-61.926c-3.059,0-6.023,0.435-8.986,0.879v15.8v90.508v15.8
		c2.963,0.453,5.928,0.888,8.986,0.888C390.199,362.27,418,334.478,418,300.321z"/>
	<path d="M252.229,174.226V35.044c0-12.894-10.473-23.348-23.357-23.348H31.947C19.063,11.696,8.59,22.15,8.59,35.044V476.96
		c0,12.894,10.473,23.343,23.357,23.343h64.428v-139.76c-1.16,0.502-2.416,0.798-3.734,0.798H55.783
		c-5.121,0-9.273-4.153-9.273-9.284v-36.87c0-5.131,4.152-9.288,9.273-9.288h36.857c1.318,0,2.574,0.3,3.734,0.798v-61.608
		c-1.16,0.498-2.416,0.798-3.734,0.798H55.783c-5.121,0-9.273-4.158-9.273-9.288v-36.87c0-5.131,4.152-9.284,9.273-9.284h36.857
		c5.152,0,9.305,4.153,9.305,9.284v6.83c9.055-19.047,28.318-32.335,50.742-32.335H252.229z M158.871,84.278
		c0-5.13,4.154-9.288,9.275-9.288h36.855c5.154,0,9.307,4.157,9.307,9.288v36.865c0,5.131-4.152,9.288-9.307,9.288h-36.855
		c-5.121,0-9.275-4.157-9.275-9.288V84.278z M101.945,121.144c0,5.131-4.152,9.288-9.305,9.288H55.783
		c-5.121,0-9.273-4.157-9.273-9.288V84.278c0-5.13,4.152-9.288,9.273-9.288h36.857c5.152,0,9.305,4.157,9.305,9.288V121.144z"/>
	<path d="M314.078,500.304V230.56c0-12.894-10.436-23.348-23.32-23.348h-138.07c-12.889,0-23.326,10.454-23.326,23.348v269.744
		H314.078z M176.461,267.784c0-5.13,4.154-9.283,9.307-9.283h71.904c5.123,0,9.275,4.153,9.275,9.283v19.379
		c0,5.135-4.152,9.293-9.275,9.293h-71.904c-5.152,0-9.307-4.158-9.307-9.293V267.784z M176.461,350.139
		c0-5.135,4.154-9.292,9.307-9.292h71.904c5.123,0,9.275,4.157,9.275,9.292V369.5c0,5.139-4.152,9.292-9.275,9.292h-71.904
		c-5.152,0-9.307-4.153-9.307-9.292V350.139z M176.461,432.48c0-5.14,4.154-9.292,9.307-9.292h71.904
		c5.123,0,9.275,4.153,9.275,9.292v19.375c0,5.13-4.152,9.288-9.275,9.288h-71.904c-5.152,0-9.307-4.157-9.307-9.288V432.48z"/>
</g>
</svg>
