<?xml version="1.0" encoding="iso-8859-1"?>
<!-- Generator: Adobe Illustrator 18.1.1, SVG Export Plug-In . SVG Version: 6.00 Build 0)  -->
<svg version="1.1" id="Capa_1" xmlns="http://www.w3.org/2000/svg" xmlns:xlink="http://www.w3.org/1999/xlink" x="0px" y="0px"
	 viewBox="0 0 492 492" style="enable-background:new 0 0 492 492;" xml:space="preserve">
<g>
	<g>
		<polygon points="461,287 461,492 307,492 307,451 174,451 174,492 31,492 31,287 		"/>
		<path d="M368,250c-6-26.667-19.333-48.667-40-66c-6-5.333-12.5-9.5-19.5-12.5s-16.167-6.167-27.5-9.5
			s-19.667-6-25-8V89h2c1.335-0.667,2.669-1,4-1c0.667-0.667,2.333-1.5,5-2.5s4.667-1.833,6-2.5c5.336-1.333,9.669-2.333,13-3
			c4-1.333,7-2,9-2c4,0,9,0.667,15,2c7.333,2,13.333,3.667,18,5l18,4c5.333,1.333,10,2,14,2c2.667,0,9-0.667,19-2V14
			c-10.667,2.667-17,4-19,4c-4,0-8.667-0.667-14-2c-4-0.667-10-2-18-4c-5.333-2-11.333-3.667-18-5c-5.333-1.333-9.667-2-13-2
			c-16.668,0-30.334,3-41,9V0h-20v154h-1c-4,1.333-12,3.833-24,7.5s-21.5,7.167-28.5,10.5s-13.5,7.667-19.5,13
			c-20.667,17.333-34,38.667-40,64c-1.334-0.673-3.168-0.84-5.5-0.5c-2.333,0.333-5.333,1.833-9,4.5s-5.5,7-5.5,13h287
			c0-6-1.833-10.333-5.5-13s-7.167-4-10.5-4L368,250z"/>
	</g>
</g>
<g>
</g>
<g>
</g>
<g>
</g>
<g>
</g>
<g>
</g>
<g>
</g>
<g>
</g>
<g>
</g>
<g>
</g>
<g>
</g>
<g>
</g>
<g>
</g>
<g>
</g>
<g>
</g>
<g>
</g>
</svg>
