<?xml version="1.0" encoding="iso-8859-1"?>
<!-- Generator: Adobe Illustrator 16.0.0, SVG Export Plug-In . SVG Version: 6.00 Build 0)  -->
<!DOCTYPE svg PUBLIC "-//W3C//DTD SVG 1.1//EN" "http://www.w3.org/Graphics/SVG/1.1/DTD/svg11.dtd">
<svg version="1.1" id="Capa_1" xmlns="http://www.w3.org/2000/svg" xmlns:xlink="http://www.w3.org/1999/xlink" x="0px" y="0px"
	 width="952.8px" height="952.8px" viewBox="0 0 952.8 952.8" style="enable-background:new 0 0 952.8 952.8;" xml:space="preserve"
	>
<g>
	<g>
		<path d="M703.5,509.149c10.601-9.199,22.7-16.899,36.2-22.899v-3.601c0-26.5,21.5-48,48-48h12V421.95c0-19.301-15.7-35-35-35
			H597.4c-19.3,0-35,15.699-35,35V618.35c0,19.3,15.7,35,35,35h58.2c-1.801-9.6-2.801-19.6-2.801-30c0-22.8,4.301-44.1,12.7-63.2
			C674,540.95,686.8,523.649,703.5,509.149z"/>
		<path d="M316.2,1.05c-19.3,0-35,15.7-35,35v582.3c0,19.3,15.7,35,35,35h167.2c19.3,0,35-15.7,35-35V36.05c0-19.3-15.7-35-35-35
			H316.2z"/>
		<path d="M237.3,618.45v-397.8c0-19.3-15.7-35-35-35H35c-19.3,0-35,15.7-35,35v397.8c0,19.3,15.7,35,35,35h167.2
			C221.6,653.45,237.3,637.75,237.3,618.45z"/>
		<path d="M919.9,705.95c-10.3-10.301-23.601-19.101-39.4-26.101c-14.7-6.5-30.7-9.7-46.1-12.8c-20.2-4.1-39.4-7.9-51.9-18.4
			c-1.8-1.5-3.5-3.199-5-5c-5-6.1-7.5-13.8-7.5-23.5c0-9.8,2.9-17.6,9.2-24.6c5-5.6,12.3-9.8,20.6-12.1c4.7-1.301,9.7-2,14.801-2
			c13,0,24.6,4.5,31.6,12.399c5.2,5.8,8.9,15.5,10.8,28.101c1.3,8.3,8.4,14.199,16.5,14.199c0.8,0,1.7-0.1,2.5-0.199l53.7-8
			c9.1-1.4,15.4-9.801,14.1-18.9l0,0c-4.6-32.7-18.6-59-41.6-78.1c-11.8-9.801-26.6-17.4-43.2-22.2v-26c0-9.2-7.5-16.7-16.7-16.7
			h-42.6h-12c-9.2,0-16.7,7.5-16.7,16.7v25.6c-18.3,5.101-34.3,13.4-46.899,24.5c-26.5,23.2-40,53.8-40,90.8
			c0,10.5,1.199,20.5,3.5,30c2.3,9.4,5.699,18.301,10.3,26.7c9.399,17.101,22.899,30.7,40.2,40.4c24.5,13.7,48.199,19.7,74.399,25.6
			c17.3,3.9,36.4,9.601,46.2,21.601c4.6,5.6,6.9,13.899,6.9,24.5c0,13.199-3.7,23.899-11.2,32.5c-7,8-17.3,13.399-28.9,15.199
			c-2.8,0.4-5.6,0.601-8.5,0.601c-16.6,0-31.899-7-41-18.7c-4.2-5.4-10-17-13.5-41.3c-1.2-8.3-8.399-14.3-16.5-14.3
			c-1,0-1.899,0.1-2.899,0.3l-52.5,9.1c-8.4,1.5-14.4,9.101-13.801,17.7c1.801,25.9,8.7,48.4,20.5,66.9
			c11.9,18.699,26.5,32.6,43.4,41.3c9.6,4.899,19.8,8.899,30.5,11.8v21.5c0,9.2,7.5,16.7,16.7,16.7H842.3c9.2,0,16.7-7.5,16.7-16.7
			v-21c23.3-6.5,43.601-18.3,59.3-34.8c22.9-24,34.5-54.2,34.5-89.7c0-16.2-2.8-31.6-8.3-45.7
			C938.601,729.149,930.4,716.55,919.9,705.95z"/>
	</g>
</g>
<g>
</g>
<g>
</g>
<g>
</g>
<g>
</g>
<g>
</g>
<g>
</g>
<g>
</g>
<g>
</g>
<g>
</g>
<g>
</g>
<g>
</g>
<g>
</g>
<g>
</g>
<g>
</g>
<g>
</g>
</svg>
