<?xml version="1.0" encoding="iso-8859-1"?>
<!-- Generator: Adobe Illustrator 16.0.0, SVG Export Plug-In . SVG Version: 6.00 Build 0)  -->
<!DOCTYPE svg PUBLIC "-//W3C//DTD SVG 1.1//EN" "http://www.w3.org/Graphics/SVG/1.1/DTD/svg11.dtd">
<svg version="1.1" id="Capa_1" xmlns="http://www.w3.org/2000/svg" xmlns:xlink="http://www.w3.org/1999/xlink" x="0px" y="0px"
	 width="91.47px" height="91.47px" viewBox="0 0 91.47 91.47" style="enable-background:new 0 0 91.47 91.47;" xml:space="preserve"
	>
<g>
	<g>
		<path d="M69.341,62.425c-3.084,0-5.595,2.509-5.595,5.595c0,3.084,2.511,5.592,5.595,5.592c3.083,0,5.595-2.508,5.595-5.592
			C74.936,64.934,72.424,62.425,69.341,62.425z"/>
		<path d="M88.559,60.052c0.039-0.31,0.061-0.622,0.061-0.937c0-2.012-0.783-3.905-2.207-5.328l-2.848-2.846
			c-1.595-1.604-3.975-2.41-6.254-2.133c-1.38-1.785-3.541-2.937-5.967-2.937h-4.041c-2.419,0-4.574,1.146-5.955,2.923
			c-2.246-0.281-4.597,0.514-6.203,2.09l-4.433-3.738l-8.502,8.455l-8.523-8.455l-4.947,4.172l-10.298,4.74
			c-1.523,0.627-2.875,1.707-3.781,3.229L0,83.797h53.783l1.309,1.307c1.596,1.598,3.973,2.402,6.246,2.125
			c1.38,1.785,3.541,2.937,5.966,2.937h4.041c2.419,0,4.576-1.146,5.956-2.923c2.268,0.281,4.646-0.526,6.252-2.133l2.859-2.858
			c1.424-1.423,2.207-3.315,2.207-5.33c0-0.315-0.02-0.628-0.057-0.937c1.769-1.381,2.907-3.533,2.907-5.945v-4.041
			C91.47,63.585,90.33,61.432,88.559,60.052z M85.486,70.039c0,0.848-0.688,1.537-1.535,1.537h-2.443
			c-0.255,0.879-0.605,1.727-1.047,2.531l1.727,1.727c0.6,0.6,0.6,1.574,0,2.174l-2.859,2.855c-0.578,0.58-1.59,0.58-2.17,0
			l-1.729-1.727c-0.803,0.441-1.652,0.793-2.531,1.049v2.442c0,0.849-0.688,1.536-1.537,1.536H67.32
			c-0.847,0-1.535-0.688-1.535-1.536v-2.442c-0.879-0.256-1.729-0.605-2.532-1.049l-1.728,1.727c-0.558,0.561-1.613,0.559-2.17,0
			l-2.858-2.855c-0.29-0.291-0.449-0.676-0.449-1.088c0-0.404,0.164-0.801,0.45-1.086l1.726-1.727
			c-0.44-0.806-0.793-1.652-1.048-2.531h-2.443c-0.848,0-1.535-0.689-1.535-1.537v-4.041c0-0.848,0.688-1.535,1.535-1.535h2.443
			c0.255-0.879,0.605-1.729,1.048-2.533l-1.727-1.727c-0.601-0.6-0.601-1.572,0-2.172l2.858-2.857c0.578-0.58,1.59-0.58,2.17,0
			l1.728,1.727c0.804-0.441,1.653-0.793,2.532-1.049V53.41c0-0.848,0.688-1.536,1.535-1.536h4.041c0.849,0,1.537,0.688,1.537,1.536
			v2.441c0.879,0.256,1.729,0.606,2.531,1.049l1.729-1.727c0.559-0.559,1.615-0.559,2.17,0l2.859,2.857
			c0.289,0.289,0.448,0.676,0.448,1.086c0,0.404-0.164,0.802-0.45,1.086l-1.725,1.728c0.439,0.806,0.792,1.653,1.047,2.532h2.443
			c0.848,0,1.535,0.688,1.535,1.535V70.039z"/>
		<path d="M42.144,48.168v0.003c0.009,0,0.02-0.002,0.029-0.002c0.005,0,0.013,0.002,0.02,0.002c0.001,0,0.004,0,0.007,0
			s0.006,0,0.006,0c0.008,0,0.016-0.002,0.021-0.002c0.01,0,0.02,0.002,0.029,0.002v-0.003c12.005,0.184,19.303-10.324,19.49-27.646
			C61.867,8.504,54.415,1.633,42.277,1.309V1.305c-0.019,0-0.032,0.001-0.051,0.001V1.305c-0.011,0-0.019,0-0.026,0.001
			c-0.008-0.001-0.018-0.001-0.027-0.001v0.001c-0.019,0-0.033-0.001-0.049-0.001v0.004C29.986,1.633,22.532,8.504,22.653,20.521
			C22.842,37.843,30.139,48.35,42.144,48.168z"/>
	</g>
</g>
<g>
</g>
<g>
</g>
<g>
</g>
<g>
</g>
<g>
</g>
<g>
</g>
<g>
</g>
<g>
</g>
<g>
</g>
<g>
</g>
<g>
</g>
<g>
</g>
<g>
</g>
<g>
</g>
<g>
</g>
</svg>
