<?xml version="1.0" encoding="iso-8859-1"?>
<!-- Generator: Adobe Illustrator 18.1.1, SVG Export Plug-In . SVG Version: 6.00 Build 0)  -->
<svg version="1.1" id="Capa_1" xmlns="http://www.w3.org/2000/svg" xmlns:xlink="http://www.w3.org/1999/xlink" x="0px" y="0px"
	 viewBox="0 0 94.099 94.099" style="enable-background:new 0 0 94.099 94.099;" xml:space="preserve">
<g>
	<path d="M37.97,29.751H25.576v-1.822H37.97V29.751z M37.97,34.865H25.576v1.822H37.97V34.865z
		 M13.186,43.687h24.787v-1.822H13.186V43.687z M13.186,50.612h24.787V48.79H13.186V50.612z M13.186,57.616h24.787v-1.825H13.186
		V57.616z M13.186,37.213l3.482-9.831h1.188h1.188l3.486,9.831h-1.095h-1.084l-0.673-2.001h-3.722l-0.655,2.001h-1.056H13.186z
		 M16.518,33.53h2.613l-1.299-3.951L16.518,33.53z M74.599,51.127c-0.719-0.225-1.678-0.233-2.906-0.061l3.497,6.739
		c0.837-0.544,1.414-1.202,1.718-1.979c0.376-0.941,0.286-1.929-0.251-2.985C76.188,51.954,75.508,51.374,74.599,51.127z
		 M63.061,42.499c-0.365,0.859-0.301,1.768,0.197,2.738c0.419,0.812,1.145,1.303,2.162,1.5c0.573,0.104,1.27,0.136,2.097,0.064
		l-3.06-5.93C63.773,41.318,63.305,41.873,63.061,42.499z M89.595,65.736v14.047c0,7.906-6.41,14.315-14.315,14.315h-60.84
		c-7.906,0-14.315-6.41-14.315-14.315v-60.84c0-2.906,0.88-5.597,2.369-7.856C3.165,4.874,8.383,0,14.772,0h60.189
		c6.388,0,11.603,4.871,12.275,11.087c1.489,2.258,2.362,4.953,2.362,7.856V54.96l4.377,8.611L89.595,65.736z M43.961,3.579H14.768
		c-2.158,0-4.109,0.809-5.64,2.097c-1.936,1.618-3.192,4.019-3.192,6.735v60.186c0,4.864,3.955,8.829,8.833,8.829h29.193V4.624
		V3.579L43.961,3.579z M83.786,68.607L67.563,76.63L47.074,36.29l8.732-15.339l17.672,2.276l10.304,20.285V12.408
		c0-2.716-1.26-5.118-3.189-6.735c-1.539-1.288-3.489-2.097-5.64-2.097H59.239v1.049v8.346l-3.482-2.92l-3.482,2.92V4.624V3.575
		h-6.531v1.049v76.799H74.95c4.864,0,8.829-3.955,8.829-8.829v-3.987H83.786z M77.108,61.517c2.23-1.253,3.726-2.838,4.488-4.767
		c0.845-2.112,0.676-4.291-0.49-6.564c-0.998-1.943-2.355-3.189-4.069-3.743c-1.714-0.551-4.101-0.551-7.193,0.025l-0.49,0.086
		l-3.375-6.521c0.998-0.394,1.825-0.49,2.48-0.276c0.837,0.268,1.585,1.038,2.251,2.312l4.391-2.233
		c-1.167-2.262-2.759-3.65-4.803-4.187c-1.825-0.476-3.887-0.204-6.181,0.805l-1.224-2.373l-1.56,0.795l1.245,2.423
		c-1.972,1.156-3.3,2.609-3.976,4.355c-0.769,2.015-0.587,4.126,0.558,6.327c0.931,1.8,2.265,2.935,4.026,3.425
		c1.614,0.455,3.844,0.433,6.682-0.021l3.733,7.208c-0.97,0.308-1.832,0.326-2.609,0.036c-0.991-0.39-1.847-1.335-2.537-2.842
		l-4.678,2.362l0.308,0.619c1.195,2.326,2.788,3.783,4.746,4.341c1.958,0.565,4.202,0.315,6.703-0.777l1.718,3.335l1.571-0.791
		L77.108,61.517z"/>
</g>
<g>
</g>
<g>
</g>
<g>
</g>
<g>
</g>
<g>
</g>
<g>
</g>
<g>
</g>
<g>
</g>
<g>
</g>
<g>
</g>
<g>
</g>
<g>
</g>
<g>
</g>
<g>
</g>
<g>
</g>
</svg>
