<?xml version="1.0" encoding="iso-8859-1"?>
<!-- Generator: Adobe Illustrator 18.0.0, SVG Export Plug-In . SVG Version: 6.00 Build 0)  -->
<!DOCTYPE svg PUBLIC "-//W3C//DTD SVG 1.1//EN" "http://www.w3.org/Graphics/SVG/1.1/DTD/svg11.dtd">
<svg version="1.1" id="Capa_1" xmlns="http://www.w3.org/2000/svg" xmlns:xlink="http://www.w3.org/1999/xlink" x="0px" y="0px"
	 viewBox="0 0 297 297" style="enable-background:new 0 0 297 297;" xml:space="preserve">
<g>
	<path d="M261.91,88.633h-5.399l-48.328-48.338c1.457-3.34,2.27-7.023,2.27-10.893c0-15.072-12.263-27.338-27.335-27.338
		c-15.072,0-27.334,12.266-27.334,27.338c0,15.076,12.262,27.34,27.334,27.34c3.868,0,7.55-0.813,10.888-2.27l34.152,34.16H68.844
		l34.151-34.16c3.338,1.457,7.018,2.27,10.885,2.27c15.073,0,27.336-12.264,27.336-27.34c0-15.072-12.263-27.338-27.336-27.338
		c-15.07,0-27.332,12.266-27.332,27.338c0,3.869,0.813,7.553,2.269,10.893L40.49,88.633h-5.4C15.741,88.633,0,104.375,0,123.723
		v1.813c0,12.814,6.913,24.033,17.197,30.158h262.605C290.087,149.568,297,138.35,297,125.535v-1.813
		C297,104.375,281.259,88.633,261.91,88.633z"/>
	<path d="M17.31,254.832c0,22.111,17.99,40.103,40.103,40.103h182.174c22.112,0,40.103-17.992,40.103-40.103v-83.098H17.31V254.832z
		 M209.716,198.34c0-4.43,3.592-8.02,8.021-8.02c4.429,0,8.02,3.59,8.02,8.02v51.943c0,4.43-3.591,8.021-8.02,8.021
		c-4.43,0-8.021-3.592-8.021-8.021V198.34z M140.478,198.34c0-4.43,3.591-8.02,8.021-8.02c4.43,0,8.02,3.59,8.02,8.02v51.943
		c0,4.43-3.591,8.021-8.02,8.021c-4.43,0-8.021-3.592-8.021-8.021V198.34z M71.241,198.34c0-4.43,3.591-8.02,8.021-8.02
		c4.429,0,8.021,3.59,8.021,8.02v51.943c0,4.43-3.592,8.021-8.021,8.021c-4.43,0-8.021-3.592-8.021-8.021V198.34z"/>
</g>
<g>
</g>
<g>
</g>
<g>
</g>
<g>
</g>
<g>
</g>
<g>
</g>
<g>
</g>
<g>
</g>
<g>
</g>
<g>
</g>
<g>
</g>
<g>
</g>
<g>
</g>
<g>
</g>
<g>
</g>
</svg>
