<?xml version="1.0" standalone="no"?>
<!DOCTYPE svg PUBLIC "-//W3C//DTD SVG 20010904//EN"
 "http://www.w3.org/TR/2001/REC-SVG-20010904/DTD/svg10.dtd">
<svg version="1.0" xmlns="http://www.w3.org/2000/svg"
 width="88.000000pt" height="97.000000pt" viewBox="0 0 88.000000 97.000000"
 preserveAspectRatio="xMidYMid meet">
<metadata>
Created by potrace 1.13, written by Peter Selinger 2001-2015
</metadata>
<g transform="translate(0.000000,97.000000) scale(0.100000,-0.100000)"
fill="#000000" stroke="none">
<path d="M10 899 c0 -150 54 -231 179 -270 95 -28 150 -76 181 -157 12 -31 26
-66 31 -77 14 -29 3 231 -11 280 -19 61 -65 101 -135 114 -85 16 -160 56 -193
103 -15 21 -32 46 -39 56 -10 14 -12 6 -13 -49z"/>
<path d="M833 913 c-43 -66 -95 -99 -194 -122 -95 -22 -123 -45 -144 -115 -18
-60 -33 -306 -18 -291 6 6 16 33 22 60 23 96 81 151 194 185 54 17 81 31 108
60 46 48 71 127 67 210 l-3 63 -32 -50z"/>
<path d="M343 791 c58 -49 82 -129 86 -283 3 -110 -6 -218 -18 -218 -3 0 -17
39 -30 87 -26 96 -51 152 -75 172 -13 11 -22 11 -46 1 -16 -7 -30 -13 -30 -14
0 -1 22 -25 49 -53 70 -73 127 -229 147 -401 3 -34 10 -64 14 -67 4 -2 10 26
14 63 4 37 16 103 27 146 39 155 89 248 151 286 l30 18 -36 17 c-31 15 -39 15
-53 4 -21 -18 -55 -97 -78 -181 -10 -38 -21 -68 -25 -68 -4 0 -10 24 -14 53
-15 125 0 304 31 361 8 17 21 41 27 53 6 13 16 23 22 23 5 0 18 6 27 13 14 10
-7 12 -116 12 l-133 0 29 -24z"/>
</g>
</svg>
