<?xml version="1.0" standalone="no"?>
<!DOCTYPE svg PUBLIC "-//W3C//DTD SVG 20010904//EN"
 "http://www.w3.org/TR/2001/REC-SVG-20010904/DTD/svg10.dtd">
<svg version="1.0" xmlns="http://www.w3.org/2000/svg"
 width="174.000000pt" height="74.000000pt" viewBox="0 0 558.000000 222.000000"
 preserveAspectRatio="xMidYMid meet">
<metadata>
Created by potrace 1.10, written by Peter Selinger 2001-2011
</metadata>
<g transform="translate(0.000000,222.000000) scale(0.100000,-0.100000)"
fill="#0b2841" stroke="none">
<path d="M2010 2068 c-34 -62 -129 -150 -181 -169 -24 -9 -80 -24 -124 -33
-44 -10 -95 -25 -114 -34 -36 -18 -91 -78 -91 -100 0 -8 -6 -26 -14 -40 -8
-15 -19 -82 -26 -149 -6 -66 -14 -138 -17 -160 l-6 -38 26 31 c15 18 27 41 27
51 0 80 110 175 235 203 208 48 255 85 315 250 14 39 31 196 23 217 -9 24 -29
13 -53 -29z"/>
<path d="M719 2088 c-11 -134 48 -310 127 -375 42 -36 129 -72 173 -73 71 -1
216 -84 246 -140 34 -63 45 -96 45 -132 0 -40 13 -51 25 -21 10 28 -6 264 -21
300 -8 18 -14 46 -14 63 0 16 -3 30 -8 30 -4 0 -15 15 -25 33 -10 17 -32 40
-50 51 -35 20 -167 56 -209 56 -15 0 -29 4 -33 9 -3 5 -19 13 -36 16 -43 10
-154 120 -163 163 -6 25 -13 32 -32 32 -13 0 -24 -6 -25 -12z"/>
<path d="M1190 1901 c0 -6 8 -15 18 -19 60 -24 142 -111 142 -151 0 -9 6 -23
13 -30 9 -9 11 -71 10 -253 -2 -133 -5 -243 -8 -246 -13 -14 -45 34 -45 68 0
23 -8 46 -20 60 -11 13 -20 29 -20 36 0 23 -49 109 -85 148 l-35 40 -55 -18
c-62 -19 -72 -41 -23 -51 33 -8 121 -88 138 -127 6 -13 14 -30 19 -38 5 -8 17
-33 26 -55 10 -22 22 -48 27 -59 28 -54 53 -173 71 -330 11 -102 26 -139 40
-101 4 8 11 55 17 103 6 48 17 116 26 152 8 36 14 75 14 87 0 12 4 24 10 28 5
3 14 20 19 38 29 95 79 191 128 242 15 17 50 41 76 53 26 12 45 27 42 31 -3 5
-29 17 -57 27 l-52 17 -53 -58 c-29 -32 -53 -68 -53 -80 0 -11 -5 -26 -11 -32
-14 -14 -48 -111 -49 -138 0 -11 -5 -27 -10 -35 -16 -24 -25 -1 -39 100 -18
121 -1 394 27 422 7 7 12 19 12 28 0 19 48 62 113 102 68 42 61 53 -25 42 -40
-4 -102 -8 -138 -8 -36 0 -98 4 -137 8 -54 7 -73 6 -73 -3z"/>
<path d="M4656 1709 c-47 -7 -67 -16 -94 -41 -19 -18 -38 -42 -43 -53 -5 -11
-19 -38 -32 -60 -12 -22 -31 -66 -42 -97 -10 -32 -23 -58 -27 -58 -5 0 -27 14
-50 30 -48 35 -75 37 -127 10 -116 -59 -171 -176 -171 -367 0 -124 14 -173 57
-192 52 -24 117 44 151 154 5 17 15 30 23 30 10 0 14 -15 14 -60 0 -75 9 -99
45 -125 34 -25 53 -25 93 -2 38 20 97 76 97 90 0 5 7 12 15 16 8 3 15 12 15
19 0 8 7 20 15 27 8 7 15 21 15 31 0 16 -6 18 -44 13 -39 -6 -45 -4 -51 15
-18 59 32 223 133 426 48 97 53 107 85 140 15 17 26 37 25 45 -4 18 -26 20
-102 9z m-256 -378 c0 -11 -4 -22 -9 -25 -4 -3 -19 -34 -32 -68 -29 -78 -84
-158 -110 -158 -33 0 -41 33 -19 85 62 147 91 185 140 185 23 0 30 -4 30 -19z"/>
<path d="M2439 1413 c-35 -25 -75 -57 -88 -69 -26 -26 -21 -31 34 -36 l30 -3
7 -90 c4 -49 12 -106 17 -125 6 -19 11 -61 11 -93 0 -73 29 -137 63 -137 25 0
166 136 232 223 59 77 69 67 61 -60 -3 -60 -9 -120 -12 -135 -10 -45 26 -35
85 24 l52 52 1 243 c1 133 -2 246 -5 250 -12 11 -127 -115 -127 -139 0 -66
-64 -177 -129 -226 -72 -53 -92 -19 -101 173 -5 112 -9 146 -24 168 -10 15
-24 27 -31 27 -7 0 -41 -21 -76 -47z"/>
<path d="M3179 1441 c-42 -19 -146 -96 -171 -126 -22 -27 -9 -37 29 -23 28 10
35 9 53 -7 21 -19 22 -26 18 -222 -3 -203 -3 -203 19 -203 12 0 23 3 25 8 4
10 65 52 76 52 28 0 35 34 33 159 -2 115 0 132 19 164 36 60 96 63 102 4 3
-27 7 -32 28 -29 13 1 28 9 33 17 4 8 28 29 53 46 51 34 52 47 14 112 -46 78
-87 72 -182 -27 -66 -68 -83 -68 -75 4 5 40 2 51 -16 68 -21 18 -24 19 -58 3z"/>
<path d="M3800 1445 c-14 -8 -33 -14 -42 -15 -22 0 -99 -78 -119 -121 -36 -74
-43 -108 -47 -211 -3 -94 -1 -112 19 -150 33 -66 64 -87 127 -88 85 0 167 65
225 179 17 35 22 61 10 61 -3 0 -30 -22 -59 -50 -42 -40 -60 -50 -86 -50 -50
0 -74 23 -69 67 0 6 25 17 54 23 65 15 108 41 139 83 41 53 58 94 58 138 0 98
-129 180 -210 134z m91 -97 c1 -13 1 -29 0 -36 -3 -18 -69 -127 -96 -156 -29
-31 -55 -34 -55 -5 0 23 30 118 42 134 66 86 107 109 109 63z"/>
<path d="M1985 1433 c-55 -12 -185 -96 -185 -118 0 -11 15 -13 68 -8 63 5 69
4 97 -23 37 -35 66 -79 58 -88 -4 -3 -21 -6 -38 -6 -64 0 -183 -52 -246 -108
-37 -33 -42 -44 -47 -90 -5 -52 -4 -53 38 -92 42 -39 46 -40 113 -40 61 0 78
4 131 34 73 41 103 70 85 82 -7 4 -38 6 -70 5 -56 -2 -103 14 -151 52 -52 41
18 93 115 85 54 -4 124 -34 155 -66 30 -29 72 -90 72 -104 0 -7 7 -22 15 -32
8 -11 15 -28 15 -38 0 -28 37 -22 80 12 21 17 43 30 49 30 5 0 15 9 21 21 9
16 8 26 -7 47 -23 35 -36 56 -68 117 -30 57 -48 87 -75 130 -11 17 -24 40 -29
52 -6 11 -36 49 -68 82 -56 59 -86 74 -128 64z"/>
<path d="M83 684 c-2 -7 -3 -23 -1 -36 l3 -23 2683 -3 2683 -2 -3 37 -3 38
-2678 1 c-2189 1 -2680 -1 -2684 -12z"/>
<path d="M1813 478 c-12 -6 -27 -23 -33 -38 -7 -16 -20 -36 -31 -46 -23 -21
-24 -33 -2 -49 16 -12 16 -15 0 -57 -9 -24 -17 -56 -17 -72 0 -22 -6 -30 -30
-39 -24 -9 -30 -17 -30 -40 0 -26 2 -28 37 -25 30 2 42 10 60 37 13 19 23 47
23 62 0 59 22 131 41 136 20 6 26 28 9 38 -18 11 -11 45 9 45 28 0 47 26 31
45 -14 17 -36 18 -67 3z"/>
<path d="M885 468 c-2 -7 -5 -26 -7 -43 -3 -28 -6 -30 -45 -30 -61 0 -89 -31
-98 -105 -10 -88 0 -100 83 -96 l67 3 6 34 c18 93 40 181 50 198 7 10 9 26 6
35 -7 19 -56 22 -62 4z m-27 -149 c4 -34 -38 -85 -62 -76 -27 11 -29 34 -6 72
27 44 63 46 68 4z"/>
<path d="M3046 464 c-3 -9 -6 -28 -6 -44 0 -23 -23 -122 -45 -197 -6 -18 -2
-23 19 -29 34 -8 37 -5 47 57 9 58 32 99 55 99 25 0 28 -30 9 -87 -20 -57 -13
-78 21 -71 26 5 57 159 37 188 -16 22 -44 26 -75 9 -22 -12 -22 -17 -2 66 6
22 3 25 -24 25 -18 0 -32 -6 -36 -16z"/>
<path d="M3825 468 c-23 -76 -21 -73 -55 -70 -42 3 -75 -19 -100 -68 -25 -50
-25 -90 0 -117 17 -19 29 -21 87 -18 l68 3 6 48 c4 27 16 87 28 133 11 46 18
87 15 92 -8 13 -44 11 -49 -3z m-35 -133 c15 -18 6 -46 -25 -75 -47 -45 -77 9
-34 64 23 29 41 33 59 11z"/>
<path d="M3927 473 c-9 -8 -9 -58 -1 -66 3 -3 16 -1 29 5 24 11 35 33 28 56
-5 13 -45 17 -56 5z"/>
<path d="M4933 464 c-3 -9 -2 -29 4 -44 8 -22 7 -29 -8 -39 -14 -8 -19 -23
-19 -51 0 -23 -7 -57 -15 -77 -19 -44 -13 -66 16 -61 18 2 25 17 41 78 10 41
17 87 16 102 -1 15 5 35 16 46 25 28 17 56 -17 60 -18 2 -29 -2 -34 -14z"/>
<path d="M196 451 c-10 -11 -21 -48 -27 -87 -5 -38 -16 -86 -24 -106 -18 -47
-11 -68 25 -68 30 0 40 15 40 60 0 28 18 40 66 40 29 0 70 49 78 93 6 32 3 40
-20 62 -35 32 -111 35 -138 6z m100 -56 c9 -21 -23 -65 -46 -65 -16 0 -20 7
-20 33 0 19 3 37 7 40 12 13 54 7 59 -8z"/>
<path d="M1383 430 c-10 -11 -26 -29 -36 -40 l-17 -20 -30 22 c-31 22 -31 22
-66 3 -65 -35 -98 -150 -56 -188 27 -24 98 -23 112 2 19 36 13 43 -30 36 l-40
-7 0 40 c0 47 27 77 60 67 11 -4 27 -2 34 4 9 8 18 7 31 -3 17 -12 18 -17 7
-40 -15 -34 -15 -89 0 -104 17 -17 75 -15 81 2 3 8 -3 22 -14 32 -36 32 -17
114 27 114 20 0 17 23 -7 64 -24 41 -32 44 -56 16z"/>
<path d="M2919 438 c-9 -7 -23 -26 -33 -42 -15 -24 -16 -32 -6 -51 10 -18 10
-31 1 -56 -23 -68 -7 -99 53 -99 30 0 36 29 11 50 -33 27 -9 110 31 110 8 0
14 9 14 20 0 11 -4 20 -9 20 -5 0 -14 14 -20 30 -11 33 -19 36 -42 18z"/>
<path d="M475 400 c-3 -5 -18 -10 -33 -10 -40 0 -47 -9 -66 -80 -27 -103 -26
-115 9 -115 28 0 30 3 37 48 8 56 29 93 58 102 14 4 20 15 20 36 0 29 -13 39
-25 19z"/>
<path d="M578 392 c-35 -21 -78 -89 -78 -123 0 -14 9 -38 21 -53 16 -21 29
-26 64 -26 53 0 82 22 101 75 25 71 17 108 -27 130 -34 18 -46 18 -81 -3z m69
-77 c4 -39 -28 -78 -59 -73 -52 7 -22 112 31 106 21 -2 26 -9 28 -33z"/>
<path d="M1097 392 c-9 -10 -20 -41 -23 -68 -9 -64 -52 -109 -68 -69 -6 17 2
71 15 96 5 10 3 23 -5 35 -11 15 -17 16 -29 6 -19 -16 -37 -87 -37 -146 0 -52
6 -55 98 -53 48 1 53 3 58 26 3 14 10 40 14 56 19 67 21 111 7 123 -11 9 -18
8 -30 -6z"/>
<path d="M1516 386 c-39 -32 -37 -67 4 -106 38 -36 31 -54 -18 -45 -24 4 -37
2 -43 -6 -26 -42 83 -55 125 -15 37 33 33 66 -9 95 -41 27 -37 41 11 41 26 0
34 4 34 18 0 46 -57 56 -104 18z"/>
<path d="M1970 401 c0 -6 -15 -11 -34 -11 -19 0 -38 -6 -43 -12 -10 -17 -34
-115 -36 -153 -2 -26 1 -30 23 -30 22 0 26 6 35 50 14 66 29 91 60 99 21 5 26
12 23 33 -3 25 -28 46 -28 24z"/>
<path d="M2069 393 c-61 -38 -89 -143 -48 -184 18 -18 30 -21 71 -17 55 6 74
24 95 93 16 51 8 80 -27 105 -33 23 -55 24 -91 3z m74 -64 c15 -25 -27 -89
-59 -89 -21 0 -24 5 -24 37 0 62 55 96 83 52z"/>
<path d="M2335 397 c-11 -6 -35 -11 -55 -11 -35 -1 -35 -1 -41 -56 -4 -30 -12
-67 -19 -82 -17 -35 -7 -60 22 -56 18 2 25 12 31 43 19 87 53 133 79 107 7 -7
6 -25 -6 -58 -9 -26 -16 -58 -16 -71 0 -21 4 -24 28 -21 25 3 28 8 33 54 6 46
32 104 48 104 3 0 12 -4 20 -9 12 -8 12 -18 -3 -71 -20 -69 -13 -87 27 -76 20
5 25 14 30 53 3 27 9 62 12 79 5 24 2 37 -18 60 l-25 29 -40 -23 c-25 -14 -43
-19 -47 -12 -13 20 -40 28 -60 17z"/>
<path d="M2710 392 c-39 -26 -47 -36 -64 -77 -22 -51 -20 -68 9 -99 18 -20 34
-26 65 -26 55 0 76 13 100 60 29 58 26 96 -11 131 -35 33 -62 36 -99 11z m68
-80 c2 -22 -3 -41 -14 -53 -38 -42 -85 -7 -59 44 24 46 26 48 48 45 17 -2 23
-11 25 -36z"/>
<path d="M3288 392 c-35 -21 -54 -57 -62 -114 -9 -63 14 -88 82 -88 56 0 77
11 68 35 -5 13 -14 15 -44 10 -29 -5 -42 -2 -52 10 -12 15 -12 19 5 31 10 8
33 14 50 14 40 0 79 38 68 66 -10 27 -44 53 -68 53 -11 -1 -32 -8 -47 -17z
m60 -54 c-7 -20 -58 -23 -58 -4 0 11 10 16 31 16 20 0 29 -4 27 -12z"/>
<path d="M3525 400 c-4 -7 -18 -9 -30 -6 -32 8 -55 -17 -55 -59 0 -19 -7 -55
-16 -81 -17 -52 -10 -68 27 -62 19 2 25 11 31 46 10 61 30 95 58 102 20 5 25
12 25 35 0 31 -26 47 -40 25z"/>
<path d="M4088 392 c-21 -9 -33 -10 -48 -2 -11 6 -20 9 -21 8 0 -2 -11 -43
-23 -93 -24 -96 -24 -115 3 -115 28 0 41 21 41 66 0 51 40 108 61 87 9 -9 9
-25 0 -74 -14 -67 -7 -85 27 -75 19 6 32 41 32 90 1 29 36 70 55 62 12 -4 14
-15 9 -48 -4 -24 -10 -53 -15 -64 -8 -23 5 -44 28 -44 19 0 32 40 39 120 6 65
5 69 -18 84 -24 15 -28 15 -57 -1 -28 -16 -33 -17 -58 -3 -24 13 -32 14 -55 2z"/>
<path d="M4375 390 c-36 -23 -64 -81 -65 -132 0 -50 30 -70 97 -66 41 3 48 6
51 26 3 21 0 22 -40 20 -40 -3 -43 -1 -43 22 0 22 5 25 40 28 47 4 75 26 75
59 0 29 -36 63 -65 62 -11 0 -33 -9 -50 -19z m56 -55 c0 -5 -12 -11 -26 -13
-18 -2 -25 1 -25 13 0 12 7 15 25 13 14 -2 26 -7 26 -13z"/>
<path d="M4621 396 c-19 -10 -29 -11 -42 -3 -10 6 -21 9 -24 5 -8 -7 -45 -157
-45 -181 0 -23 26 -33 45 -17 8 6 17 33 21 58 8 52 29 92 50 92 23 0 25 -19
10 -81 -17 -66 -15 -79 14 -79 23 0 50 75 50 141 0 39 -4 49 -25 63 -29 19
-24 19 -54 2z"/>
<path d="M4771 381 c-39 -37 -39 -60 0 -95 37 -33 33 -51 -12 -51 -27 0 -34
-4 -34 -20 0 -15 8 -21 34 -23 56 -6 78 5 90 41 14 43 6 64 -31 83 -36 18 -28
34 17 34 42 0 53 15 29 41 -24 27 -57 24 -93 -10z"/>
<path d="M5064 391 c-49 -30 -64 -58 -64 -123 0 -66 12 -78 77 -78 67 0 103
46 103 130 0 51 -2 56 -31 73 -39 22 -47 21 -85 -2z m64 -78 c4 -42 -40 -92
-63 -73 -34 29 -4 114 38 108 17 -2 23 -11 25 -35z"/>
<path d="M5327 399 c-9 -6 -32 -9 -49 -7 -30 3 -31 1 -44 -52 -7 -30 -16 -71
-21 -90 -12 -42 -7 -60 16 -60 28 0 41 21 41 66 0 53 38 106 62 86 13 -10 13
-19 1 -68 -16 -63 -12 -84 15 -84 31 0 40 20 47 106 7 78 6 82 -16 98 -27 19
-28 19 -52 5z"/>
<path d="M3911 377 c-6 -8 -16 -43 -21 -78 -17 -104 -17 -104 7 -107 18 -3 24
4 33 36 18 68 28 135 23 149 -7 17 -27 17 -42 0z"/>
</g>
</svg>
