<?xml version="1.0" standalone="no"?>
<!DOCTYPE svg PUBLIC "-//W3C//DTD SVG 20010904//EN"
 "http://www.w3.org/TR/2001/REC-SVG-20010904/DTD/svg10.dtd">
<svg version="1.0" xmlns="http://www.w3.org/2000/svg"
 width="40.000000pt" height="74.000000pt" viewBox="0 0 120.000000 222.000000"
 preserveAspectRatio="xMidYMid meet">
<metadata>
Created by potrace 1.10, written by Peter Selinger 2001-2011
</metadata>
<g transform="translate(-50.000000,252.000000) scale(0.08000,-0.100000)"
fill="#0b2841" stroke="none">
<path d="M2010 2068 c-34 -62 -129 -150 -181 -169 -24 -9 -80 -24 -124 -33
-44 -10 -95 -25 -114 -34 -36 -18 -91 -78 -91 -100 0 -8 -6 -26 -14 -40 -8
-15 -19 -82 -26 -149 -6 -66 -14 -138 -17 -160 l-6 -38 26 31 c15 18 27 41 27
51 0 80 110 175 235 203 208 48 255 85 315 250 14 39 31 196 23 217 -9 24 -29
13 -53 -29z"/>
<path d="M719 2088 c-11 -134 48 -310 127 -375 42 -36 129 -72 173 -73 71 -1
216 -84 246 -140 34 -63 45 -96 45 -132 0 -40 13 -51 25 -21 10 28 -6 264 -21
300 -8 18 -14 46 -14 63 0 16 -3 30 -8 30 -4 0 -15 15 -25 33 -10 17 -32 40
-50 51 -35 20 -167 56 -209 56 -15 0 -29 4 -33 9 -3 5 -19 13 -36 16 -43 10
-154 120 -163 163 -6 25 -13 32 -32 32 -13 0 -24 -6 -25 -12z"/>
<path d="M1190 1901 c0 -6 8 -15 18 -19 60 -24 142 -111 142 -151 0 -9 6 -23
13 -30 9 -9 11 -71 10 -253 -2 -133 -5 -243 -8 -246 -13 -14 -45 34 -45 68 0
23 -8 46 -20 60 -11 13 -20 29 -20 36 0 23 -49 109 -85 148 l-35 40 -55 -18
c-62 -19 -72 -41 -23 -51 33 -8 121 -88 138 -127 6 -13 14 -30 19 -38 5 -8 17
-33 26 -55 10 -22 22 -48 27 -59 28 -54 53 -173 71 -330 11 -102 26 -139 40
-101 4 8 11 55 17 103 6 48 17 116 26 152 8 36 14 75 14 87 0 12 4 24 10 28 5
3 14 20 19 38 29 95 79 191 128 242 15 17 50 41 76 53 26 12 45 27 42 31 -3 5
-29 17 -57 27 l-52 17 -53 -58 c-29 -32 -53 -68 -53 -80 0 -11 -5 -26 -11 -32
-14 -14 -48 -111 -49 -138 0 -11 -5 -27 -10 -35 -16 -24 -25 -1 -39 100 -18
121 -1 394 27 422 7 7 12 19 12 28 0 19 48 62 113 102 68 42 61 53 -25 42 -40
-4 -102 -8 -138 -8 -36 0 -98 4 -137 8 -54 7 -73 6 -73 -3z"/>

</g>
</svg>
